<?xml version="1.0" encoding="UTF-8" standalone="no"?><svg width="1260" height="900" viewBox="0 0 333.37 238.13" xml:space="preserve" xmlns="http://www.w3.org/2000/svg"><path fill="#61358b" fill-rule="evenodd" d="M0 0h333.38v238.13H-.01Z"/><g fill="none"><path d="m104.7 89.03 61.99-62 61.99 62-62 61.99Z" fill="#fff"/><path d="m107.52 89.03 59.17-59.17 59.17 59.17-59.17 59.16Z" fill="#61358b"/><path d="M115.98 89.03 166.7 38.3l50.72 50.72-50.72 50.71Z" fill="#fff"/><path fill="#dd3224" d="m192.89 71.83-6.54-6.55a4.57 4.57 0 0 0-6.41-.06c-3.62 3.48-7.47 7.76-10.02 12.8 1.16-7.58 3.76-15.72 7.2-21.97l-9.54-9.54-9.54 9.54c3.44 6.26 6.05 14.4 7.2 21.98-2.56-5.06-6.4-9.33-10.02-12.81a4.57 4.57 0 0 0-6.4.06l-6.55 6.55 10.61 10.62v-9.82c3.19.95 9.72 4.75 12.03 9.82h-4.16v2.15h4.62l-3.86 3.16a2.12 2.12 0 0 0-.16 3.13l6.26 6.28 6.24-6.28a2.11 2.11 0 0 0-.16-3.13l-3.86-3.16h4.62v-2.15h-4.16c2.3-5.07 8.85-8.87 12.03-9.82v9.82l10.61-10.62Z"/><path d="M124.18 89.93h25.51l17 16.64 17.01-16.64h25.51l-42.51 41.61Z" fill="#61358b"/></g><path style="-inkscape-font-specification:'ACF Fiorentina 2015-2016'" d="M80.78 168.53c-4.41 0-7.8 1.26-10.14 3.77-2.34 2.45-3.51 6-3.51 10.63v29.76c0 4.64 1.17 8.2 3.51 10.72 2.35 2.45 5.73 3.68 10.14 3.68 4.42 0 7.8-1.23 10.14-3.68 2.35-2.51 3.52-6.08 3.52-10.72v-29.76c0-4.64-1.17-8.18-3.52-10.63-2.34-2.51-5.72-3.77-10.14-3.77zm-57.4.66v57.24h9V202.8h11.6v-8.18h-11.6v-17.25h14.8v-8.18h-23.8zm28.54 0v57.24h9V169.2h-9zm48.73 0v57.24h9v-23.3h3.1c2.08 0 3.58.54 4.5 1.63.93 1.1 1.4 2.97 1.4 5.64v11.86c.05.76.1 1.4.16 1.88.1.5.22.9.33 1.23l.32 1.06h9.16a12.6 12.6 0 0 1-.82-3.19c-.1-1.09-.16-2.34-.16-3.76v-8.83c0-3-.44-5.53-1.3-7.6a7.9 7.9 0 0 0-4.67-4.59c3.93-1.85 5.89-5.72 5.89-11.6v-4.5c0-4.42-1.06-7.72-3.2-9.9-2.06-2.18-5.44-3.27-10.13-3.27h-13.58zm33.29 0v57.24h24.53v-8.18h-15.54V201.5h12.35v-8.18h-12.35v-15.94h15.54v-8.18h-24.53zm30.42 0v57.24h8.1v-41.46l11.2 41.46h9.24V169.2h-8.02v34.26l-9.24-34.26h-11.28zm32.95 0v8.18h9.4v49.06h9v-49.06h9.4v-8.18h-27.8zm32.3 0v57.24h9V169.2h-9zm15.87 0v57.24h8.1v-41.46l11.2 41.46h9.24V169.2H266v34.26l-9.24-34.26h-11.28zm42.2 0-9.17 57.24h8.26l1.56-10.38h11.04l1.55 10.38H310l-9.16-57.24h-13.17zm-206.9 7.52a4.4 4.4 0 0 1 3.36 1.31c.87.82 1.3 2.26 1.3 4.33v30.92c0 2.07-.43 3.54-1.3 4.41a4.53 4.53 0 0 1-3.36 1.23 4.8 4.8 0 0 1-3.43-1.23c-.82-.87-1.23-2.34-1.23-4.41v-30.92c0-2.07.41-3.51 1.23-4.33a4.64 4.64 0 0 1 3.43-1.3zm28.87.66h4.33c1.58 0 2.73.46 3.44 1.39.76.92 1.14 2.42 1.14 4.5v5.64c0 2.29-.49 3.87-1.47 4.74-.93.87-2.23 1.3-3.92 1.3h-3.52v-17.57zm184.16 1.96 4.33 28.95h-8.67l4.34-28.95z" font-weight="400" font-size="81.77" font-family="ACF Fiorentina 2015-2016" letter-spacing=".41" fill="#fff" fill-rule="evenodd"/></svg>